<svg width="24" height="24" viewBox="0 0 24 24" fill="none" xmlns="http://www.w3.org/2000/svg">
<path d="M12 0C5.37259 0 0 5.37259 0 12C0 18.6284 5.3721 24 12 24C18.6284 24 24 18.6284 24 12C24 5.37259 18.6279 0 12 0ZM16.184 18.6386C15.5388 18.9412 14.9546 19.1557 14.4307 19.278C13.9064 19.4008 13.3411 19.4617 12.7329 19.4617C12.0419 19.4617 11.6345 19.3749 11.1033 19.2019C10.5732 19.027 10.12 18.7765 9.74619 18.4559C9.37048 18.1323 9.11123 17.7878 8.96552 17.4252C8.82079 17.0617 8.74867 16.5344 8.74867 15.8424V10.5439H6.69612V8.40414C7.28966 8.21165 7.97775 7.93486 8.39976 7.57474C8.82518 7.21413 9.16386 6.78189 9.42018 6.27655C9.67602 5.77316 9.8534 5.13137 9.9494 4.35119H12.0984V7.84715H15.5915V10.5439H12.0984V14.4185C12.0984 15.2952 12.0872 15.8005 12.1793 16.0481C12.2714 16.2956 12.5029 16.5524 12.7553 16.7011C13.0906 16.9009 13.4712 17.0017 13.9025 17.0017C14.6675 17.0017 15.4282 16.7522 16.185 16.2557V18.6386H16.184Z" fill="#353535"/>
</svg>
